<?xml version="1.0" encoding="UTF-8"?>
<svg xmlns="http://www.w3.org/2000/svg" viewBox="0 0 611 204.84">
  <g fill="#00abea">
    <path d="m50.68,167.59c0,13.19-3.33,22.68-9.98,28.51-6.66,5.82-15.94,8.73-27.83,8.73h0c-7.11,0-12.87-5.76-12.87-12.87v-7.09c0-4.35,3.53-7.87,7.87-7.87h0c3.58,0,6.14-.71,7.68-2.12,1.53-1.41,2.3-3.71,2.3-6.91V63.06c0-9.06,7.35-16.41,16.41-16.41h0c9.06,0,16.41,7.35,16.41,16.41v104.53ZM20.06,30.43c-3.65-3.39-5.47-7.59-5.47-12.58s1.82-9.37,5.47-12.76C23.71,1.7,28.41,0,34.18,0s10.26,1.7,13.91,5.09c3.65,3.39,5.48,7.65,5.48,12.76s-1.83,9.19-5.48,12.58-8.29,5.09-13.91,5.09-10.47-1.7-14.12-5.09Zm74.68,118.16c-8.38-4.48-14.97-10.87-19.77-19.19-4.8-8.32-7.2-18.04-7.2-29.18s2.43-20.7,7.3-29.08c4.86-8.38,11.52-14.81,19.97-19.29,8.44-4.48,17.92-6.72,28.41-6.72s19.97,2.24,28.41,6.72c8.45,4.48,15.1,10.91,19.97,19.29,4.87,8.38,7.3,18.08,7.3,29.08s-2.46,20.71-7.39,29.09c-4.93,8.38-11.65,14.81-20.15,19.29-8.51,4.48-18.02,6.73-28.51,6.73s-19.94-2.24-28.32-6.73Zm44.35-28.6c4.41-4.61,6.62-11.2,6.62-19.78s-2.15-15.16-6.43-19.77c-4.29-4.61-9.57-6.91-15.84-6.91s-11.71,2.27-15.94,6.82c-4.22,4.54-6.34,11.16-6.34,19.86s2.08,15.17,6.24,19.78c4.16,4.6,9.37,6.91,15.65,6.91s11.62-2.3,16.03-6.91Zm103.57-70.27c5.76-3.07,12.35-4.61,19.77-4.61,8.83,0,16.83,2.24,24,6.72,7.17,4.48,12.83,10.88,16.99,19.2,4.16,8.32,6.24,17.98,6.24,28.99s-2.09,20.7-6.24,29.08-9.82,14.85-16.99,19.39c-7.16,4.55-15.16,6.82-24,6.82-7.55,0-14.14-1.51-19.77-4.52-5.63-3.01-10.05-7.01-13.25-12h0c0,8.27-6.7,14.97-14.97,14.97h-2.87c-8.27,0-14.97-6.7-14.97-14.97V28.12c0-9.06,7.35-16.41,16.41-16.41h0c9.06,0,16.41,7.35,16.41,16.41v22.69c0,3.48,4.07,5.48,6.75,3.25,1.93-1.61,4.1-3.06,6.5-4.34Zm26.78,31c-4.54-4.67-10.14-7.01-16.79-7.01s-12.07,2.37-16.61,7.1c-4.55,4.73-6.81,11.2-6.81,19.39s2.27,14.66,6.81,19.39c4.54,4.74,10.08,7.11,16.61,7.11s12.09-2.4,16.7-7.2c4.61-4.8,6.91-11.3,6.91-19.48s-2.27-14.62-6.82-19.29Zm90.33,86.87c0,13.19-3.33,22.68-9.98,28.51-6.66,5.82-15.94,8.73-27.83,8.73h0c-7.11,0-12.87-5.76-12.87-12.87v-7.09c0-4.35,3.53-7.87,7.87-7.87h0c3.58,0,6.14-.71,7.68-2.12,1.53-1.41,2.3-3.71,2.3-6.91V63.06c0-9.06,7.35-16.41,16.41-16.41h0c9.06,0,16.41,7.35,16.41,16.41v104.53Zm-30.62-137.16c-3.65-3.39-5.47-7.59-5.47-12.58s1.82-9.37,5.47-12.76,8.35-5.09,14.12-5.09,10.26,1.7,13.91,5.09,5.48,7.65,5.48,12.76-1.83,9.19-5.48,12.58-8.29,5.09-13.91,5.09-10.47-1.7-14.12-5.09Zm209.34-2.3v109.24c0,9.06-7.35,16.41-16.41,16.41h0c-9.06,0-16.41-7.35-16.41-16.41V28.12c0-9.06,7.35-16.41,16.41-16.41h0c9.06,0,16.41,7.35,16.41,16.41Zm17.99,14.4v-5.57c0-9.07,7.35-16.42,16.42-16.42h0c9.07,0,16.42,7.35,16.42,16.42v5.57c0,2.28,1.85,4.13,4.13,4.13h3.74c7.53,0,13.63,6.1,13.63,13.63h0c0,7.53-6.1,13.63-13.63,13.63h-3.74c-2.28,0-4.13,1.85-4.13,4.13v38.87c0,3.2.77,5.51,2.3,6.91,1.53,1.41,4.09,2.11,7.68,2.11h.57c6.15,0,11.14,4.99,11.14,11.14h0c0,9.22-7.48,16.7-16.7,16.7h0c-11.9,0-21.19-2.91-27.84-8.73-6.66-5.83-9.98-15.33-9.98-28.51v-38.49m-76.12-6.91c-4.87-8.38-11.51-14.81-19.97-19.29-8.44-4.48-17.92-6.72-28.41-6.72s-19.97,2.24-28.41,6.72c-8.44,4.48-15.11,10.91-19.97,19.29-4.87,8.38-7.3,18.08-7.3,29.08s2.4,20.86,7.2,29.18c4.8,8.32,11.39,14.72,19.77,19.19,8.38,4.48,17.82,6.73,28.32,6.73s20-2.24,28.51-6.73c8.51-4.48,15.22-10.91,20.15-19.29,4.93-8.38,7.39-18.08,7.39-29.09s-2.43-20.7-7.3-29.08Zm-24.74,26.73l-29.4,32.66c-1.2,1.34-3.41.3-3.15-1.47l2.86-20c.12-.83-.35-1.63-1.13-1.95l-15.64-6.26c-1.21-.49-1.53-2.05-.61-2.98l29.17-29.17c1.25-1.25,3.37-.16,3.08,1.59l-2.97,17.83,17.1,6.84c1.17.47,1.52,1.97.68,2.91Z"/>
  </g>
</svg>